<?xml version="1.0" encoding="UTF-8"?>
<svg id="Layer_2" data-name="Layer 2" xmlns="http://www.w3.org/2000/svg" viewBox="0 0 99.91 99">
  <defs>
    <style>
      .cls-1, .cls-2 {
        fill: #fff;
      }

      .cls-2 {
        font-family: Inter-SemiBold, Inter;
        font-size: 65.52px;
        font-variation-settings: 'wght' 600, 'slnt' 0;
        font-weight: 600;
        letter-spacing: .08em;
      }
    </style>
  </defs>
  <g id="Layer_1-2" data-name="Layer 1">
    <g>
      <path class="cls-1" d="m15.24,71.96c1.37,2.12,2.93,4.09,4.64,5.91l-4.01,8.28,5.29,4.29,7.27-5.64h0c2.14,1.3,4.39,2.41,6.74,3.31l-.02,9.2,6.63,1.57,4.1-8.23c2.46.24,4.98.27,7.51.05l3.97,8.3,6.65-1.46.13-9.2c2.39-.87,4.66-1.94,6.79-3.2l7.17,5.75,5.36-4.2-3.88-8.34c1.75-1.8,3.33-3.76,4.72-5.84h0s8.96,2.07,8.96,2.07l3-6.11-7.11-5.83c.79-2.36,1.38-4.81,1.73-7.31l8.97-2.03.05-6.81-8.94-2.17h0c-.16-1.23-.37-2.47-.64-3.7-.27-1.24-.6-2.45-.97-3.63h0s7.2-5.72,7.2-5.72l-2.91-6.16-8.99,1.92c-1.37-2.12-2.93-4.09-4.64-5.91l4.01-8.28-5.29-4.29-7.27,5.64h0c-2.14-1.3-4.39-2.41-6.74-3.31l.02-9.2L58.14.12l-4.1,8.23c-2.46-.24-4.98-.27-7.51-.05l-3.97-8.3-6.65,1.46-.13,9.2c-2.39.87-4.66,1.94-6.79,3.2l-7.17-5.75-5.36,4.2,3.88,8.34c-1.75,1.8-3.33,3.76-4.72,5.84h0s-8.96-2.07-8.96-2.07l-3,6.11,7.11,5.83c-.79,2.36-1.38,4.81-1.73,7.31L.05,45.7l-.05,6.81,8.94,2.17h0c.16,1.23.37,2.47.64,3.7.27,1.24.6,2.45.97,3.63h0s-7.2,5.72-7.2,5.72l2.91,6.16,8.99-1.92Zm-.57-14.7c-4.29-19.49,8.04-38.77,27.53-43.05,19.49-4.29,38.77,8.04,43.05,27.53,4.29,19.49-8.04,38.77-27.53,43.05-19.49,4.29-38.77-8.04-43.05-27.53Z"/>
      <text class="cls-2" transform="translate(25.32 72.24)"><tspan x="0" y="0">G</tspan></text>
    </g>
  </g>
</svg>